<svg preserveAspectRatio="none" width="100%" height="100%" overflow="visible" style="display: block;" viewBox="0 0 32 32" fill="none" xmlns="http://www.w3.org/2000/svg">
<g id="activity">
<path id="Vector" d="M29.3344 16H26.0275C25.4447 15.9988 24.8776 16.1884 24.4128 16.54C23.9481 16.8916 23.6113 17.3857 23.4539 17.9468L20.3203 29.0944C20.3002 29.1636 20.258 29.2245 20.2003 29.2677C20.1426 29.311 20.0725 29.3344 20.0003 29.3344C19.9282 29.3344 19.858 29.311 19.8003 29.2677C19.7426 29.2245 19.7005 29.1636 19.6803 29.0944L12.3197 2.90562C12.2995 2.83638 12.2574 2.77555 12.1997 2.73227C12.142 2.68899 12.0718 2.6656 11.9997 2.6656C11.9276 2.6656 11.8574 2.68899 11.7997 2.73227C11.742 2.77555 11.6999 2.83638 11.6797 2.90562L8.54607 14.0532C8.38934 14.6121 8.05454 15.1046 7.59248 15.456C7.13042 15.8073 6.56634 15.9983 5.98587 16H2.6656" stroke="var(--stroke-0, white)" stroke-width="2" stroke-linecap="round"/>
</g>
</svg>
