<svg preserveAspectRatio="none" width="100%" height="100%" overflow="visible" style="display: block;" viewBox="0 0 48 48" fill="none" xmlns="http://www.w3.org/2000/svg">
<g id="calendar-heart">
<path id="Vector" d="M24.254 43.9984H10C8.93913 43.9984 7.92172 43.577 7.17157 42.8268C6.42143 42.0767 6 41.0593 6 39.9984V11.9984C6 10.9375 6.42143 9.92012 7.17157 9.16997C7.92172 8.41983 8.93913 7.9984 10 7.9984H38C39.0609 7.9984 40.0783 8.41983 40.8284 9.16997C41.5786 9.92012 42 10.9375 42 11.9984V22.2484M32 3.9984V11.9984M6 19.9984H42M16 3.9984V11.9984M29.2406 37.5977C28.8199 37.159 28.4924 36.6397 28.2778 36.0709C28.0633 35.5022 27.9662 34.8959 27.9925 34.2886C28.0187 33.6813 28.1677 33.0856 28.4305 32.5375C28.6932 31.9894 29.0643 31.5002 29.5213 31.0994C29.9783 30.6986 30.5118 30.3946 31.0896 30.2057C31.6673 30.0167 32.2773 29.9468 32.8828 30.0001C33.4884 30.0534 34.0768 30.2288 34.6126 30.5158C35.1485 30.8027 35.6207 31.1953 36.0006 31.6697C36.3825 31.2002 36.855 30.8126 37.3901 30.5299C37.9252 30.2473 38.5118 30.0755 39.1148 30.0248C39.7178 29.9741 40.3249 30.0455 40.8997 30.2348C41.4744 30.4241 42.0051 30.7274 42.46 31.1266C42.9148 31.5257 43.2845 32.0125 43.5469 32.5578C43.8093 33.1031 43.959 33.6957 43.987 34.3002C44.0151 34.9047 43.921 35.5087 43.7103 36.0759C43.4995 36.6432 43.1765 37.1621 42.7606 37.6017L37.5086 43.3137C37.3213 43.5295 37.0898 43.7024 36.8298 43.821C36.5698 43.9396 36.2874 44.0009 36.0016 44.0009C35.7159 44.0009 35.4335 43.9396 35.1735 43.821C34.9135 43.7024 34.682 43.5295 34.4946 43.3137L29.2406 37.5977Z" stroke="var(--stroke-0, #167786)" stroke-width="2" stroke-linecap="round"/>
</g>
</svg>
