<svg preserveAspectRatio="none" width="100%" height="100%" overflow="visible" style="display: block;" viewBox="0 0 28 28" fill="none" xmlns="http://www.w3.org/2000/svg">
<g id="cross">
<path id="Vector" d="M3.01587 11.1832C3.45349 10.7456 4.04703 10.4997 4.66592 10.4997H9.33296C9.6424 10.4997 9.93917 10.3768 10.158 10.158C10.3768 9.93917 10.4997 9.6424 10.4997 9.33296V4.66592C10.4997 4.04703 10.7456 3.45349 11.1832 3.01587C11.6208 2.57825 12.2144 2.3324 12.8332 2.3324H15.1668C15.7856 2.3324 16.3792 2.57825 16.8168 3.01587C17.2544 3.45349 17.5003 4.04703 17.5003 4.66592V9.33296C17.5003 9.6424 17.6232 9.93917 17.842 10.158C18.0608 10.3768 18.3576 10.4997 18.667 10.4997H23.3341C23.953 10.4997 24.5465 10.7456 24.9841 11.1832C25.4217 11.6208 25.6676 12.2144 25.6676 12.8332V15.1668C25.6676 15.7856 25.4217 16.3792 24.9841 16.8168C24.5465 17.2544 23.953 17.5003 23.3341 17.5003H18.667C18.3576 17.5003 18.0608 17.6232 17.842 17.842C17.6232 18.0608 17.5003 18.3576 17.5003 18.667V23.3341C17.5003 23.953 17.2544 24.5465 16.8168 24.9841C16.3792 25.4217 15.7856 25.6676 15.1668 25.6676H12.8332C12.2144 25.6676 11.6208 25.4217 11.1832 24.9841C10.7456 24.5465 10.4997 23.953 10.4997 23.3341V18.667C10.4997 18.3576 10.3768 18.0608 10.158 17.842C9.93917 17.6232 9.6424 17.5003 9.33296 17.5003H4.66592C4.04703 17.5003 3.45349 17.2544 3.01587 16.8168C2.57825 16.3792 2.3324 15.7856 2.3324 15.1668V12.8332C2.3324 12.2144 2.57825 11.6208 3.01587 11.1832Z" stroke="var(--stroke-0, white)" stroke-width="2" stroke-linecap="round"/>
</g>
</svg>
