<svg preserveAspectRatio="none" width="100%" height="100%" overflow="visible" style="display: block;" viewBox="0 0 28 28" fill="none" xmlns="http://www.w3.org/2000/svg">
<g id="eye">
<path id="Vector" d="M2.40532 13.5951C2.30809 13.8571 2.30809 14.1452 2.40532 14.4071C3.35231 16.7033 4.95976 18.6666 7.02389 20.0481C9.08802 21.4296 11.5159 22.1671 13.9997 22.1671C16.4834 22.1671 18.9113 21.4296 20.9754 20.0481C23.0396 18.6666 24.647 16.7033 25.594 14.4071C25.6912 14.1452 25.6912 13.8571 25.594 13.5951C24.647 11.299 23.0396 9.33569 20.9754 7.9542C18.9113 6.5727 16.4834 5.8352 13.9997 5.8352C11.5159 5.8352 9.08802 6.5727 7.02389 7.9542C4.95976 9.33569 3.35231 11.299 2.40532 13.5951Z" stroke="var(--stroke-0, white)" stroke-width="2" stroke-linecap="round"/>
</g>
</svg>
