<svg preserveAspectRatio="none" width="100%" height="100%" overflow="visible" style="display: block;" viewBox="0 0 32 32" fill="none" xmlns="http://www.w3.org/2000/svg">
<g id="heart">
<path id="Vector" d="M3.95654 8.51179C3.11576 9.73436 2.66563 11.1832 2.6656 12.6669C2.6656 15.7336 4.66575 18.0003 6.66591 20.0003L14.0105 27.1097C14.2625 27.3919 14.5717 27.6172 14.9176 27.7707C15.2634 27.9242 15.638 28.0023 16.0163 27.9999C16.3947 27.9976 16.7682 27.9147 17.1121 27.7568C17.456 27.599 17.7623 27.3698 18.0108 27.0844L25.334 20.0003C27.3342 18.0003 29.3343 15.7203 29.3343 12.6669C29.3414 11.1799 28.8954 9.72605 28.0557 8.49877C27.216 7.27149 26.0224 6.32904 24.6338 5.79685C23.2452 5.26467 21.7274 5.16798 20.2825 5.51968C18.8375 5.87137 17.534 6.65475 16.5453 7.76556C16.4755 7.84025 16.391 7.89979 16.2972 7.9405C16.2034 7.9812 16.1022 8.00221 16 8.00221C15.8977 8.00221 15.7965 7.9812 15.7027 7.9405C15.6089 7.89979 15.5244 7.84025 15.4546 7.76556C14.4628 6.66192 13.1596 5.88507 11.717 5.5376C10.2744 5.19013 8.76034 5.28839 7.37477 5.81941C5.98921 6.35043 4.79733 7.28922 3.95654 8.51179Z" stroke="var(--stroke-0, white)" stroke-width="2" stroke-linecap="round"/>
</g>
</svg>
