<svg preserveAspectRatio="none" width="100%" height="100%" overflow="visible" style="display: block;" viewBox="0 0 48 48" fill="none" xmlns="http://www.w3.org/2000/svg">
<g id="heart">
<path id="Vector" d="M5.93482 12.7677C4.67364 14.6015 3.99844 16.7748 3.9984 19.0004C3.9984 23.6005 6.99863 27.0005 9.99886 30.0005L21.0157 40.6646C21.3938 41.0879 21.8576 41.4259 22.3764 41.6561C22.8951 41.8863 23.457 42.0035 24.0245 41.9999C24.5921 41.9963 25.1524 41.872 25.6682 41.6352C26.184 41.3985 26.6435 41.0546 27.0162 40.6266L38.001 30.0005C41.0012 27.0005 44.0015 23.5805 44.0015 19.0004C44.0121 16.7699 43.3431 14.5891 42.0836 12.7482C40.824 10.9072 39.0336 9.49356 36.9507 8.69528C34.8678 7.897 32.5911 7.75198 30.4237 8.27951C28.2563 8.80705 26.301 9.98213 24.818 11.6483C24.7132 11.7604 24.5865 11.8497 24.4458 11.9107C24.3051 11.9718 24.1533 12.0033 23.9999 12.0033C23.8465 12.0033 23.6948 11.9718 23.5541 11.9107C23.4133 11.8497 23.2867 11.7604 23.1819 11.6483C21.6942 9.99289 19.7393 8.8276 17.5755 8.3064C15.4116 7.78519 13.1405 7.93259 11.0622 8.72911C8.98382 9.52564 7.19599 10.9338 5.93482 12.7677Z" stroke="var(--stroke-0, #167786)" stroke-width="2" stroke-linecap="round"/>
</g>
</svg>
