<svg preserveAspectRatio="none" width="100%" height="100%" overflow="visible" style="display: block;" viewBox="0 0 28 28" fill="none" xmlns="http://www.w3.org/2000/svg">
<g id="heart">
<path id="Vector" d="M3.46198 7.44781C2.72629 8.51756 2.33242 9.7853 2.3324 11.0836C2.3324 13.7669 4.08253 15.7503 5.83267 17.5003L12.2592 23.721C12.4797 23.9679 12.7503 24.1651 13.0529 24.2994C13.3555 24.4337 13.6832 24.5021 14.0143 24.5C14.3454 24.4979 14.6722 24.4253 14.9731 24.2872C15.274 24.1491 15.542 23.9485 15.7594 23.6989L22.1673 17.5003C23.9174 15.7503 25.6675 13.7553 25.6675 11.0836C25.6737 9.78245 25.2835 8.51029 24.5487 7.43642C23.814 6.36256 22.7696 5.53791 21.5546 5.07225C20.3395 4.60658 19.0115 4.52199 17.7472 4.82972C16.4828 5.13745 15.3422 5.82291 14.4772 6.79487C14.416 6.86022 14.3421 6.91232 14.2601 6.94793C14.178 6.98355 14.0894 7.00193 14 7.00193C13.9105 7.00193 13.822 6.98355 13.7399 6.94793C13.6578 6.91232 13.5839 6.86022 13.5228 6.79487C12.655 5.82918 11.5146 5.14943 10.2524 4.8454C8.9901 4.54136 7.66529 4.62734 6.45293 5.09198C5.24056 5.55662 4.19766 6.37806 3.46198 7.44781Z" stroke="var(--stroke-0, white)" stroke-width="2" stroke-linecap="round"/>
</g>
</svg>
