<svg preserveAspectRatio="none" width="100%" height="100%" overflow="visible" style="display: block;" viewBox="0 0 83.7064 31.5" fill="none" xmlns="http://www.w3.org/2000/svg">
<g id="Union">
<path d="M48.5 12C61 12.0001 69 20 74.5 24C77.0512 25.8554 81.5 31.5 77.5 31.5C73 31.5 63.5 17 56.5 16C66 21 72 30 68.5 29.5C61 28.4286 62 18.1875 48.5 16.5C44.5 16 41.5001 15.5 41.5 14.5C41.5 14 43.5 12 48.5 12Z" fill="var(--fill-0, #0D2343)"/>
<path d="M8 0C8 0 15.5 3.5 23 3.5C32.016 3.5 36.984 1.5 46 1.5C49.5 1.5 63 6.64286 67 9.5C74 14.5 85.3786 23.7476 83.5 25C79 28 71.36 19.975 65 16C61 13.5 49.5 9.36364 45 11C38.5 13.3636 34.5866 16.2155 43 18.5C43 18.5 54.4854 20 54.5 24C54.5146 28 46.5 26 40.5 25.5C34.8536 25.0295 31.5461 27.1591 26 26C19.7596 24.6958 17.073 21.5961 11.5 18.5C7 16 0 15.5 0 15.5C1.5 9.5 5.5 2.5 8 0Z" fill="var(--fill-0, #0D2343)"/>
</g>
</svg>
