<svg preserveAspectRatio="none" width="100%" height="100%" overflow="visible" style="display: block;" viewBox="0 0 118.031 83.1611" fill="none" xmlns="http://www.w3.org/2000/svg">
<g id="Union">
<path d="M110.031 0C113.031 3.16113 118.031 13.1611 118.031 24.1611C118.031 56.7459 91.6158 83.161 59.0311 83.1611C36.909 83.1611 17.6306 70.9858 7.53107 52.9707C1.01388 41.3455 -2.46896 26.6611 2.03107 12.7656C2.03107 30.4924 3.85635 35.6691 8.53107 45.3936C17.5659 64.1878 38.0563 75.9274 59.0311 77.1611C75.5877 78.135 88.8811 72.7463 98.3543 63.5811C99.6143 62.2234 100.685 60.6419 100.031 59.6611C98.031 56.6612 81.3666 68.3099 68.5311 69.6611C64.0308 70.1349 53.4359 67.7039 43.5311 62.6611C38.6207 60.1611 26.5311 48.5597 26.5311 44.6611C26.5311 43.6876 27.271 43.3495 28.5311 43.4756C31.7131 43.7942 33.137 46.7738 37.0311 50.1611C41.8905 54.3881 49.7611 59.1611 60.0311 59.1611C66.031 59.1611 72.0311 55.6611 73.5311 53.6611C69.0311 53.1611 54.0311 58.6611 54.0311 53.1611C54.0311 49.1612 62.5306 48.661 70.0301 45.1611C77.1365 41.8446 78.03 39.1612 88.0301 38.6611C98.0305 38.1611 104.531 42.1611 109.031 40.6611C111.526 39.8292 112.99 36.6548 113.772 34.2021C114.605 29.9837 115.031 25.6115 115.031 21.1611C115.031 12.901 113.242 7.05869 110.031 0Z" fill="var(--fill-0, #167786)"/>
<path d="M32.0311 40.1611C36.531 36.6614 40.031 49.1612 49.5311 54.1611C43.7001 49.6611 40.0311 43.3755 41.0311 42.6611C44.531 40.1614 48.0311 49.661 52.0311 52.1611C52.0311 56.1611 55.5311 57.6611 55.5311 57.6611C55.5311 57.6611 45.531 56.661 38.0311 49.6611C33.5311 45.4611 31.4728 40.5953 32.0311 40.1611Z" fill="var(--fill-0, #167786)"/>
</g>
</svg>
