<svg preserveAspectRatio="none" width="100%" height="100%" overflow="visible" style="display: block;" viewBox="0 0 101.888 111" fill="none" xmlns="http://www.w3.org/2000/svg">
<g id="Union">
<path d="M52.3877 94C55.1489 94.0003 57.3877 96.2387 57.3877 99C57.3877 104.218 52.3876 108 47.8877 111C43.3877 108 38.3877 104.219 38.3877 99C38.3877 96.2386 40.6263 94 43.3877 94C45.3667 94.0002 47.0775 95.1502 47.8877 96.8184C48.698 95.1502 50.4085 94 52.3877 94Z" fill="var(--fill-0, #FFB145)"/>
<path d="M4.3877 56C24.8876 49.5002 47.0925 53.6551 66.3877 66.5C46.4098 57.0012 31.3874 53.3666 4.3877 56Z" fill="var(--fill-0, #FFB145)"/>
<path d="M66.3867 55.5C77.3489 51.7938 88.0876 51.9259 98.3867 56C87.5824 54.1941 80.6689 53.9933 66.3867 55.5Z" fill="var(--fill-0, #FFB145)"/>
<path d="M0 36.8076C7.70722 38.3365 19.4826 44.7514 26.9297 49.1426C18.7091 46.44 6.16014 41.7138 0 36.8076Z" fill="var(--fill-0, #FFB145)"/>
<path d="M101.888 38.5C94.2535 43.4782 86.2376 46.7816 77.3877 49C85.2196 44.5501 93.2463 41.0241 101.888 38.5Z" fill="var(--fill-0, #FFB145)"/>
<path d="M17.915 37.209C21.38 38.2497 26.3558 41.8478 29.4766 44.2881C25.8644 42.6503 20.3971 39.8548 17.915 37.209Z" fill="var(--fill-0, #FFB145)"/>
<path d="M86.7422 37.9248C84.4045 40.3168 79.1434 42.7033 75.6777 44.1094C78.6152 41.891 83.3481 38.692 86.7422 37.9248Z" fill="var(--fill-0, #FFB145)"/>
<path d="M94.3867 20.5C88.6238 27.5607 79.8868 34.5001 72.3867 40C78.3867 33.0001 87.3868 24.5001 94.3867 20.5Z" fill="var(--fill-0, #FFB145)"/>
<path d="M9.91699 19.3896C16.9082 23.2245 26.3423 33.0306 32.207 39.5557C25.0777 34.4283 14.3792 26.0199 9.91699 19.3896Z" fill="var(--fill-0, #FFB145)"/>
<path d="M28.3135 25.6348C31.1838 27.837 34.5594 32.9657 36.6113 36.3545C33.8152 33.5418 29.6955 28.989 28.3135 25.6348Z" fill="var(--fill-0, #FFB145)"/>
<path d="M76.9766 25.335C75.5372 28.6322 71.262 33.1706 68.3877 36C70.4685 32.6142 73.9504 27.5197 76.9766 25.335Z" fill="var(--fill-0, #FFB145)"/>
<path d="M75.6133 7.62305C73.8866 15.0004 68.3205 25.6161 63.3867 33.5C66.3721 24.7773 70.8869 14.0004 75.6133 7.62305Z" fill="var(--fill-0, #FFB145)"/>
<path d="M29.0781 6.13672C33.8471 12.2616 38.384 24.6877 41.0283 32.7979C36.6639 25.4586 30.407 13.8035 29.0781 6.13672Z" fill="var(--fill-0, #FFB145)"/>
<path d="M43.6074 18.0518C45.2185 21.2911 45.9969 27.3825 46.3516 31.3281C45.0753 27.573 43.3753 21.6721 43.6074 18.0518Z" fill="var(--fill-0, #FFB145)"/>
<path d="M61.0518 18.1279C61.1432 21.7446 59.2754 27.5943 57.9297 31.3203C58.3596 27.3776 59.3117 21.3111 61.0518 18.1279Z" fill="var(--fill-0, #FFB145)"/>
<path d="M52.4277 0C54.3872 7.99999 53.387 22 52.4277 31C51.387 22 50.3872 7.99998 52.4277 0Z" fill="var(--fill-0, #FFB145)"/>
</g>
</svg>
