<svg preserveAspectRatio="none" width="100%" height="100%" overflow="visible" style="display: block;" viewBox="0 0 69.7705 29.8184" fill="none" xmlns="http://www.w3.org/2000/svg">
<g id="Union">
<path fill-rule="evenodd" clip-rule="evenodd" d="M8.61328 5.59082C10.0224 5.59082 11.2807 5.94706 12.3867 6.65918C13.4926 7.37122 14.3596 8.39767 14.9883 9.73828C15.6246 11.0791 15.9433 12.6929 15.9434 14.5791C15.9434 16.4655 15.6288 18.0832 15 19.4316C14.3712 20.7725 13.5077 21.8069 12.4092 22.5342C11.3107 23.2538 10.0565 23.6133 8.64746 23.6133C7.58709 23.6132 6.72004 23.4351 6.0459 23.0791C5.37923 22.723 4.85633 22.3064 4.47754 21.8291C4.09881 21.3519 3.80706 20.9278 3.60254 20.5566H3.39746V29.8184H0V5.81836H3.31836V8.64746H3.60254C3.79949 8.28389 4.08396 7.86387 4.45508 7.38672C4.82624 6.90951 5.34105 6.49275 6 6.13672C6.65899 5.77314 7.53017 5.59087 8.61328 5.59082ZM7.88672 8.47754C6.902 8.47754 6.06849 8.73084 5.38672 9.23828C4.71254 9.74581 4.20102 10.4543 3.85254 11.3633C3.5041 12.2723 3.33012 13.333 3.33008 14.5449C3.33008 15.7721 3.5073 16.8483 3.86328 17.7725C4.21934 18.6967 4.73494 19.4206 5.40918 19.9434C6.0834 20.4585 6.9095 20.7158 7.88672 20.7158C8.90163 20.7158 9.74992 20.4469 10.4316 19.9092C11.1134 19.3638 11.6291 18.6251 11.9775 17.6934C12.3336 16.7615 12.5117 15.7116 12.5117 14.5449C12.5117 13.3936 12.3367 12.3599 11.9883 11.4434C11.6474 10.5267 11.1328 9.80276 10.4434 9.27246C9.7616 8.74222 8.90932 8.47758 7.88672 8.47754Z" fill="var(--fill-0, #FFB145)"/>
<path d="M62.8271 5.59082C64.7135 5.59082 66.1989 6.00018 67.2822 6.81836C68.3653 7.62888 69.0812 8.71575 69.4297 10.0791L66.3506 10.625C66.2218 10.2311 66.0166 9.85606 65.7363 9.5C65.4636 9.144 65.0926 8.85226 64.623 8.625C64.1533 8.39773 63.5659 8.28418 62.8613 8.28418C61.8993 8.2842 61.0961 8.49985 60.4521 8.93164C59.8084 9.3558 59.4864 9.90506 59.4863 10.5791C59.4863 11.1623 59.7022 11.6323 60.1338 11.9883C60.5656 12.3443 61.2635 12.636 62.2256 12.8633L64.998 13.5C66.604 13.8712 67.801 14.4431 68.5889 15.2158C69.3767 15.9885 69.7705 16.9927 69.7705 18.2275C69.7704 19.2728 69.4673 20.2044 68.8613 21.0225C68.2629 21.833 67.4261 22.4695 66.3506 22.9316C65.2824 23.3938 64.0429 23.625 62.6338 23.625C60.6796 23.6249 59.0853 23.2081 57.8506 22.375C56.6157 21.5341 55.8575 20.3404 55.5771 18.7949L58.8613 18.2949C59.0659 19.151 59.4867 19.7989 60.123 20.2383C60.7594 20.6701 61.5887 20.8867 62.6113 20.8867C63.725 20.8867 64.6156 20.6555 65.2822 20.1934C65.9487 19.7238 66.2821 19.1516 66.2822 18.4775C66.2822 17.9321 66.0771 17.4738 65.668 17.1025C65.2665 16.7314 64.6495 16.4511 63.8164 16.2617L60.8613 15.6133C59.2327 15.2421 58.0283 14.6513 57.248 13.8408C56.4754 13.0303 56.089 12.0039 56.0889 10.7617C56.0889 9.73144 56.3764 8.82935 56.9521 8.05664C57.5279 7.28391 58.3237 6.68182 59.3389 6.25C60.3539 5.81065 61.5167 5.59085 62.8271 5.59082Z" fill="var(--fill-0, #FFB145)"/>
<path d="M37.5166 16.5117C37.5167 17.7009 37.8459 18.6481 38.5049 19.3525C39.1639 20.057 40.0203 20.4091 41.0732 20.4092C41.7095 20.4092 42.342 20.2497 42.9707 19.9316C43.6071 19.6135 44.1341 19.1322 44.5508 18.4883C44.9749 17.8444 45.1833 17.0264 45.1758 16.0342V5.81836H48.585V23.2725H45.2441V20.25H45.0625C44.661 21.1818 44.0162 21.9579 43.1299 22.5791C42.2511 23.1927 41.1563 23.5 39.8457 23.5C38.7248 23.4999 37.7326 23.2539 36.8691 22.7617C36.0131 22.2617 35.3381 21.5222 34.8457 20.5449C34.361 19.5677 34.1191 18.3591 34.1191 16.9199V5.81836H37.5166V16.5117Z" fill="var(--fill-0, #FFB145)"/>
<path d="M26.3477 23.2725H22.9502V0H26.3477V23.2725Z" fill="var(--fill-0, #FFB145)"/>
</g>
</svg>
