<svg preserveAspectRatio="none" width="100%" height="100%" overflow="visible" style="display: block;" viewBox="0 0 288.966 74.3809" fill="none" xmlns="http://www.w3.org/2000/svg">
<g id="Union">
<path fill-rule="evenodd" clip-rule="evenodd" d="M132.355 43C135.12 43.0001 137.625 43.6016 139.872 44.8047C142.119 45.9979 143.904 47.763 145.227 50.0996C146.549 52.4263 147.21 55.2899 147.21 58.6904C147.21 62.0909 146.549 64.9593 145.227 67.2959C143.904 69.6226 142.119 71.3877 139.872 72.5908C137.625 73.7839 135.12 74.3808 132.355 74.3809C129.572 74.3809 127.056 73.7792 124.809 72.5762C122.571 71.3631 120.791 69.5932 119.469 67.2666C118.156 64.93 117.5 62.0711 117.5 58.6904C117.5 55.2899 118.156 52.4263 119.469 50.0996C120.791 47.763 122.571 45.9979 124.809 44.8047C127.056 43.6017 129.571 43 132.355 43ZM132.355 50.2188C130.983 50.2188 129.824 50.5469 128.88 51.2031C127.945 51.8494 127.234 52.8038 126.747 54.0664C126.27 55.3192 126.031 56.8609 126.031 58.6904C126.031 60.5199 126.27 62.0663 126.747 63.3291C127.234 64.5818 127.945 65.5362 128.88 66.1924C129.824 66.8387 130.983 67.1621 132.355 67.1621C133.727 67.1621 134.881 66.8386 135.815 66.1924C136.76 65.5362 137.471 64.5818 137.948 63.3291C138.435 62.0663 138.679 60.5199 138.679 58.6904C138.679 56.8609 138.435 55.3192 137.948 54.0664C137.471 52.8038 136.76 51.8494 135.815 51.2031C134.881 50.5469 133.727 50.2188 132.355 50.2188Z" fill="var(--fill-0, #0D2343)"/>
<path d="M94.4121 55.3496H105.39V43.418H113.682V73.9629H105.39V62.0312H94.4121V73.9629H86.1191V43.418H94.4121V55.3496Z" fill="var(--fill-0, #0D2343)"/>
<path fill-rule="evenodd" clip-rule="evenodd" d="M164.231 43.418C166.498 43.418 168.482 43.8649 170.183 44.7598C171.883 45.6547 173.206 46.9125 174.15 48.5332C175.095 50.1539 175.567 52.0483 175.567 54.2158C175.567 56.4033 175.08 58.2976 174.105 59.8984C173.141 61.4993 171.783 62.7326 170.033 63.5977C168.293 64.4625 166.26 64.8945 163.934 64.8945H159.34V73.9629H151.047V43.418H164.231ZM159.34 58.4521H162.263C163.237 58.4521 164.068 58.2824 164.754 57.9443C165.45 57.5963 165.982 57.1041 166.35 56.4678C166.727 55.8315 166.916 55.0808 166.916 54.2158C166.916 53.3409 166.727 52.595 166.35 51.9785C165.982 51.3522 165.45 50.875 164.754 50.5469C164.068 50.2088 163.237 50.04 162.263 50.04H159.34V58.4521Z" fill="var(--fill-0, #0D2343)"/>
<path d="M200.624 50.0996H186.902V55.3496H199.49V62.0312H186.902V67.2812H200.564V73.9629H178.609V43.418H200.624V50.0996Z" fill="var(--fill-0, #0D2343)"/>
<path d="M14.7354 0C16.6643 0 18.4398 0.263051 20.0605 0.790039C21.6813 1.31703 23.1032 2.08834 24.3262 3.10254C25.5491 4.10677 26.5336 5.34491 27.2793 6.81641C28.0249 8.2879 28.4776 9.9731 28.6367 11.8721H20.2246C20.1649 11.1761 20.0056 10.5443 19.7471 9.97754C19.4985 9.41101 19.1504 8.92415 18.7031 8.5166C18.2656 8.09901 17.7338 7.78027 17.1074 7.56152C16.481 7.33285 15.77 7.21877 14.9746 7.21875C13.5826 7.21875 12.4039 7.55726 11.4395 8.2334C10.4851 8.90952 9.75882 9.87896 9.26172 11.1416C8.77459 12.4043 8.53125 13.9207 8.53125 15.6904C8.53126 17.5597 8.78019 19.1259 9.27734 20.3887C9.78444 21.6414 10.5152 22.5863 11.4697 23.2227C12.4242 23.8489 13.5729 24.1621 14.915 24.1621C15.6804 24.1621 16.3663 24.0677 16.9727 23.8789C17.5791 23.6801 18.1063 23.3962 18.5537 23.0283C19.0011 22.6605 19.3642 22.2181 19.6426 21.7012C19.9309 21.1742 20.1252 20.582 20.2246 19.9258L28.6367 19.9854C28.5373 21.278 28.1743 22.5961 27.5479 23.9385C26.9215 25.2707 26.0312 26.5033 24.8779 27.6367C23.7345 28.7603 22.3173 29.6655 20.627 30.3516C18.9366 31.0376 16.9725 31.3809 14.7354 31.3809C11.9316 31.3808 9.41563 30.7792 7.18848 29.5762C4.97131 28.3731 3.21638 26.6031 1.92383 24.2666C0.641169 21.93 1.12171e-05 19.0711 0 15.6904C0 12.2899 0.6563 9.42629 1.96875 7.09961C3.28124 4.76298 5.05108 2.99787 7.27832 1.80469C9.50547 0.601627 11.9912 6.49412e-05 14.7354 0Z" fill="var(--fill-0, #0D2343)"/>
<path fill-rule="evenodd" clip-rule="evenodd" d="M47.1348 0C49.8988 5.20218e-05 52.4043 0.60164 54.6514 1.80469C56.8985 2.99787 58.6834 4.76296 60.0059 7.09961C61.3283 9.42629 61.9893 12.2899 61.9893 15.6904C61.9892 19.0909 61.3282 21.9593 60.0059 24.2959C58.6834 26.6226 56.8985 28.3877 54.6514 29.5908C52.4043 30.7839 49.8988 31.3808 47.1348 31.3809C44.3508 31.3809 41.835 30.7792 39.5879 29.5762C37.3507 28.3631 35.5705 26.5932 34.248 24.2666C32.9356 21.93 32.2793 19.0711 32.2793 15.6904C32.2793 12.2899 32.9356 9.42629 34.248 7.09961C35.5705 4.76296 37.3507 2.99787 39.5879 1.80469C41.835 0.601662 44.3508 0 47.1348 0ZM47.1348 7.21875C45.7626 7.21875 44.6038 7.54688 43.6592 8.20312C42.7246 8.84938 42.0136 9.80379 41.5264 11.0664C41.0491 12.3192 40.8105 13.8609 40.8105 15.6904C40.8106 17.5199 41.0491 19.0663 41.5264 20.3291C42.0136 21.5818 42.7246 22.5362 43.6592 23.1924C44.6038 23.8387 45.7626 24.1621 47.1348 24.1621C48.5068 24.1621 49.6601 23.8386 50.5947 23.1924C51.5392 22.5362 52.2503 21.5818 52.7275 20.3291C53.2147 19.0663 53.458 17.5199 53.458 15.6904C53.458 13.8609 53.2148 12.3192 52.7275 11.0664C52.2503 9.80379 51.5392 8.84938 50.5947 8.20312C49.6601 7.54693 48.5068 7.21881 47.1348 7.21875Z" fill="var(--fill-0, #0D2343)"/>
<path fill-rule="evenodd" clip-rule="evenodd" d="M243.846 0C246.61 5.0915e-05 249.115 0.601639 251.362 1.80469C253.609 2.99787 255.394 4.76296 256.717 7.09961C258.039 9.42629 258.7 12.2899 258.7 15.6904C258.7 19.0909 258.039 21.9593 256.717 24.2959C255.394 26.6226 253.609 28.3877 251.362 29.5908C249.115 30.7839 246.61 31.3808 243.846 31.3809C241.062 31.3809 238.546 30.7792 236.299 29.5762C234.062 28.3631 232.281 26.5932 230.959 24.2666C229.646 21.93 228.99 19.0711 228.99 15.6904C228.99 12.2899 229.647 9.42629 230.959 7.09961C232.281 4.76296 234.062 2.99787 236.299 1.80469C238.546 0.60166 241.062 0 243.846 0ZM243.846 7.21875C242.474 7.21875 241.315 7.54688 240.37 8.20312C239.436 8.84938 238.725 9.80379 238.237 11.0664C237.76 12.3192 237.521 13.8609 237.521 15.6904C237.521 17.5199 237.76 19.0663 238.237 20.3291C238.725 21.5818 239.436 22.5362 240.37 23.1924C241.315 23.8387 242.474 24.1621 243.846 24.1621C245.218 24.1621 246.371 23.8386 247.306 23.1924C248.25 22.5362 248.961 21.5818 249.438 20.3291C249.926 19.0663 250.169 17.5199 250.169 15.6904C250.169 13.8609 249.926 12.3192 249.438 11.0664C248.961 9.80379 248.25 8.84938 247.306 8.20312C246.371 7.54693 245.218 7.21881 243.846 7.21875Z" fill="var(--fill-0, #0D2343)"/>
<path d="M173.291 0C175.757 0 177.89 0.412997 179.689 1.23828C181.489 2.0635 182.876 3.22633 183.851 4.72754C184.835 6.21897 185.332 7.96439 185.342 9.96289H177.407C177.328 8.9688 176.955 8.19348 176.289 7.63672C175.633 7.0799 174.633 6.80078 173.291 6.80078C172.436 6.80078 171.735 6.90556 171.188 7.11426C170.652 7.31309 170.254 7.58665 169.995 7.93457C169.737 8.28258 169.602 8.68049 169.592 9.12793C169.572 9.49574 169.637 9.82871 169.786 10.127C169.945 10.4153 170.194 10.6793 170.532 10.918C170.87 11.1465 171.302 11.3551 171.829 11.5439C172.356 11.7329 172.983 11.9016 173.709 12.0508L176.214 12.5879C177.904 12.9458 179.352 13.4182 180.555 14.0049C181.758 14.5915 182.742 15.2827 183.508 16.0781C184.273 16.8636 184.835 17.7491 185.193 18.7334C185.561 19.7175 185.75 20.7911 185.76 21.9541C185.75 23.9626 185.247 25.6636 184.253 27.0557C183.259 28.4475 181.837 29.5066 179.987 30.2324C178.148 30.9582 175.936 31.3213 173.351 31.3213C170.696 31.3213 168.379 30.9281 166.4 30.1426C164.432 29.3571 162.9 28.1492 161.807 26.5186C160.723 24.878 160.176 22.7799 160.166 20.2246H168.041C168.091 21.1592 168.325 21.9447 168.742 22.5811C169.16 23.2173 169.746 23.6992 170.502 24.0273C171.268 24.3555 172.177 24.5195 173.231 24.5195C174.116 24.5195 174.858 24.4101 175.454 24.1914C176.05 23.9727 176.502 23.6697 176.811 23.2822C177.119 22.8944 177.278 22.4513 177.288 21.9541C177.278 21.487 177.124 21.0793 176.826 20.7314C176.538 20.3735 176.06 20.0558 175.394 19.7773C174.727 19.489 173.828 19.2202 172.694 18.9717L169.651 18.3154C166.947 17.7288 164.814 16.749 163.253 15.377C161.702 13.9949 160.932 12.1107 160.941 9.72461C160.931 7.78569 161.449 6.09038 162.493 4.63867C163.547 3.17713 165.003 2.03797 166.862 1.22266C168.732 0.407315 170.875 0 173.291 0Z" fill="var(--fill-0, #0D2343)"/>
<path d="M201.264 0C203.73 0 205.862 0.412997 207.662 1.23828C209.462 2.0635 210.849 3.22633 211.823 4.72754C212.808 6.21897 213.304 7.96439 213.314 9.96289H205.38C205.3 8.9688 204.928 8.19348 204.262 7.63672C203.605 7.0799 202.606 6.80078 201.264 6.80078C200.409 6.80078 199.708 6.90556 199.161 7.11426C198.624 7.31309 198.226 7.58665 197.968 7.93457C197.709 8.28258 197.574 8.68049 197.564 9.12793C197.545 9.49574 197.61 9.82871 197.759 10.127C197.918 10.4153 198.167 10.6793 198.505 10.918C198.843 11.1465 199.275 11.3551 199.802 11.5439C200.329 11.7329 200.956 11.9016 201.682 12.0508L204.187 12.5879C205.877 12.9458 207.324 13.4182 208.527 14.0049C209.73 14.5915 210.715 15.2827 211.48 16.0781C212.246 16.8636 212.808 17.7491 213.166 18.7334C213.534 19.7175 213.722 20.7911 213.732 21.9541C213.722 23.9626 213.22 25.6636 212.226 27.0557C211.231 28.4475 209.809 29.5066 207.96 30.2324C206.121 30.9582 203.908 31.3213 201.323 31.3213C198.668 31.3213 196.352 30.9281 194.373 30.1426C192.404 29.3571 190.873 28.1492 189.779 26.5186C188.696 24.878 188.149 22.7799 188.139 20.2246H196.014C196.063 21.1592 196.297 21.9447 196.715 22.5811C197.132 23.2173 197.719 23.6992 198.475 24.0273C199.24 24.3555 200.15 24.5195 201.204 24.5195C202.089 24.5195 202.83 24.4101 203.427 24.1914C204.023 23.9727 204.475 23.6697 204.783 23.2822C205.091 22.8944 205.251 22.4513 205.261 21.9541C205.251 21.487 205.097 21.0793 204.799 20.7314C204.51 20.3735 204.032 20.0558 203.366 19.7773C202.7 19.489 201.8 19.2202 200.667 18.9717L197.624 18.3154C194.92 17.7288 192.787 16.749 191.226 15.377C189.675 13.9949 188.904 12.1107 188.914 9.72461C188.904 7.78569 189.422 6.09038 190.466 4.63867C191.52 3.17713 192.976 2.03797 194.835 1.22266C196.704 0.407315 198.847 0 201.264 0Z" fill="var(--fill-0, #0D2343)"/>
<path d="M83.2471 17.7188H83.6045L90.7041 0.417969H101.025V30.9629H92.9111V13.3037H92.6729L85.8721 30.7246H80.9795L74.1787 13.1846H73.9404V30.9629H65.8262V0.417969H76.1475L83.2471 17.7188Z" fill="var(--fill-0, #0D2343)"/>
<path fill-rule="evenodd" clip-rule="evenodd" d="M118.14 0.417969C120.407 0.417969 122.391 0.864928 124.091 1.75977C125.791 2.65465 127.114 3.91246 128.059 5.5332C129.003 7.15391 129.476 9.04825 129.476 11.2158C129.476 13.4033 128.988 15.2976 128.014 16.8984C127.049 18.4993 125.691 19.7326 123.941 20.5977C122.201 21.4626 120.168 21.8945 117.842 21.8945H113.248V30.9629H104.955V0.417969H118.14ZM113.248 15.4521H116.171C117.145 15.4521 117.976 15.2824 118.662 14.9443C119.358 14.5963 119.89 14.1041 120.258 13.4678C120.636 12.8315 120.824 12.0808 120.824 11.2158C120.824 10.3409 120.636 9.59497 120.258 8.97852C119.89 8.3522 119.358 7.87497 118.662 7.54688C117.976 7.20881 117.145 7.04004 116.171 7.04004H113.248V15.4521Z" fill="var(--fill-0, #0D2343)"/>
<path fill-rule="evenodd" clip-rule="evenodd" d="M159.189 30.9629H150.24L148.476 25.1162H138.402L136.638 30.9629H127.689L137.771 0.417969H149.106L159.189 30.9629ZM140.275 18.9121H146.603L143.559 8.8291H143.319L140.275 18.9121Z" fill="var(--fill-0, #0D2343)"/>
<path d="M225.18 30.9629H216.887V0.417969H225.18V30.9629Z" fill="var(--fill-0, #0D2343)"/>
<path d="M280.435 16.4062H280.674V0.417969H288.966V30.9629H282.046L271.009 14.915H270.83V30.9629H262.537V0.417969H269.577L280.435 16.4062Z" fill="var(--fill-0, #0D2343)"/>
</g>
</svg>
