<svg preserveAspectRatio="none" width="100%" height="100%" overflow="visible" style="display: block;" viewBox="0 0 28 28" fill="none" xmlns="http://www.w3.org/2000/svg">
<g id="users">
<path id="Vector" d="M18.667 24.5V22.1667C18.667 20.929 18.1753 19.742 17.3001 18.8668C16.4249 17.9917 15.2378 17.5 14 17.5H6.99944C5.76166 17.5 4.57458 17.9917 3.69934 18.8668C2.8241 19.742 2.3324 20.929 2.3324 22.1667V24.5M18.667 3.64925C19.6678 3.90868 20.5542 4.49306 21.1869 5.31066C21.8196 6.12826 22.1629 7.13279 22.1629 8.16658C22.1629 9.20038 21.8196 10.2049 21.1869 11.0225C20.5542 11.8401 19.6678 12.4245 18.667 12.6839M25.6676 24.4999V22.1665C25.6668 21.1325 25.3227 20.1281 24.6891 19.3109C24.0556 18.4937 23.1686 17.91 22.1673 17.6515M15.1668 8.16667C15.1668 10.744 13.0773 12.8333 10.4997 12.8333C7.92219 12.8333 5.83268 10.744 5.83268 8.16667C5.83268 5.58934 7.92219 3.5 10.4997 3.5C13.0773 3.5 15.1668 5.58934 15.1668 8.16667Z" stroke="var(--stroke-0, white)" stroke-width="2" stroke-linecap="round"/>
</g>
</svg>
