<svg preserveAspectRatio="none" width="100%" height="100%" overflow="visible" style="display: block;" viewBox="0 0 48 48" fill="none" xmlns="http://www.w3.org/2000/svg">
<g id="users">
<path id="Vector" d="M32.0006 42V38C32.0006 35.8783 31.1577 33.8434 29.6573 32.3431C28.1569 30.8429 26.1219 30 24 30H11.999C9.87714 30 7.84214 30.8429 6.34173 32.3431C4.84132 33.8434 3.9984 35.8783 3.9984 38V42M32.0006 6.25586C33.7163 6.7006 35.2357 7.70239 36.3203 9.10398C37.405 10.5056 37.9935 12.2276 37.9935 13.9999C37.9935 15.7721 37.405 17.4941 36.3203 18.8957C35.2357 20.2973 33.7163 21.2991 32.0006 21.7439M44.0016 41.9998V37.9998C44.0003 36.2272 43.4103 34.5053 42.3242 33.1044C41.2381 31.7035 39.7175 30.7029 38.0011 30.2598M26.0002 14C26.0002 18.4183 22.4182 22 17.9995 22C13.5809 22 9.99888 18.4183 9.99888 14C9.99888 9.58172 13.5809 6 17.9995 6C22.4182 6 26.0002 9.58172 26.0002 14Z" stroke="var(--stroke-0, #167786)" stroke-width="2" stroke-linecap="round"/>
</g>
</svg>
